# xmcd
# 
# Track frame offsets:
#     150
#     19134
#     64635
#     72574
#     96021
#     125229
#     141869
#     165376
#     213271
#     240795
# 
# Disc length: 3976
# 
# Revision: 4
# Processed by: cddbd v1.5.2PL0 Copyright (c) Steve Scherf et al.
# Submitted via: fre:ac v1.0.31
# 
DISCID=870f860a
DTITLE=return To Forever - Corea Clarke and White - Forever Disc 2
DYEAR=2011
DGENRE=Jazz
TTITLE0=Captain Marvel
TTITLE1=Senor Mouse
TTITLE2=Crescent
TTITLE3=Armando's Rhumba
TTITLE4=Renaissance
TTITLE5=High Wire - The Aerialist
TTITLE6=I Love You Porgy
TTITLE7=After The Cosmic Rain
TTITLE8=Space Circus
TTITLE9=500 Miles High
EXTD=YEAR: 2010
EXTT0=
EXTT1=
EXTT2=
EXTT3=
EXTT4=
EXTT5=
EXTT6=
EXTT7=
EXTT8=
EXTT9=
PLAYORDER=
